Oxygen.ufo
<glyph name="plus" format="1">
  <advance width="1126"/>
  <unicode hex="002b"/>
  <outline>
    <contour>
      <point x="637" y="718" type="line" smooth="no"/>
      <point x="1027" y="718" type="line" smooth="no"/>
      <point x="1027" y="582" type="line" smooth="no"/>
      <point x="636" y="582" type="line" smooth="no"/>
      <point x="636" y="153" type="line" smooth="no"/>
      <point x="499" y="153" type="line" smooth="no"/>
      <point x="499" y="582" type="line" smooth="no"/>
      <point x="102" y="582" type="line" smooth="no"/>
      <point x="102" y="718" type="line" smooth="no"/>
      <point x="500" y="718" type="line" smooth="no"/>
      <point x="500" y="1142" type="line" smooth="no"/>
      <point x="637" y="1142" type="line" smooth="no"/>
    </contour>
  </outline>
</glyph>
<glyph name="zero" format="1">
  <advance width="1241"/>
  <unicode hex="0030"/>
  <outline>
    <contour>
      <point x="622" y="-23" type="curve" smooth="yes"/>
      <point x="258" y="-23"/>
      <point x="109" y="308"/>
      <point x="109" y="741" type="curve" smooth="yes"/>
      <point x="109" y="1193.41"/>
      <point x="273" y="1504"/>
      <point x="622" y="1504" type="curve" smooth="yes"/>
      <point x="971" y="1504"/>
      <point x="1132" y="1193.41"/>
      <point x="1132" y="741" type="curve" smooth="yes"/>
      <point x="1132" y="308"/>
      <point x="986" y="-23"/>
    </contour>
    <contour>
      <point x="622" y="1353" type="curve" smooth="yes"/>
      <point x="414" y="1353"/>
      <point x="301" y="1097"/>
      <point x="301" y="747" type="curve" smooth="yes"/>
      <point x="301" y="390"/>
      <point x="414" y="129"/>
      <point x="622" y="129" type="curve" smooth="yes"/>
      <point x="830" y="129"/>
      <point x="943" y="390"/>
      <point x="943" y="747" type="curve" smooth="yes"/>
      <point x="943" y="1097"/>
      <point x="830" y="1353"/>
    </contour>
  </outline>
</glyph>
<glyph name="one" format="1">
  <advance width="626"/>
  <unicode hex="0031"/>
  <outline>
    <contour>
      <point x="302" y="1479" type="curve"/>
      <point x="461" y="1479" type="line"/>
      <point x="461" y="0" type="line"/>
      <point x="284" y="0" type="line"/>
      <point x="284" y="1294" type="line"/>
      <point x="205" y="1242"/>
      <point x="109" y="1204"/>
      <point x="37" y="1181" type="curve"/>
      <point x="37" y="1348" type="line"/>
      <point x="125" y="1387"/>
      <point x="223" y="1423"/>
    </contour>
  </outline>
</glyph>
<glyph name="two" format="1">
  <advance width="1116"/>
  <unicode hex="0032"/>
  <outline>
    <contour>
      <point x="113" y="0" type="line"/>
      <point x="90" y="164" type="line"/>
      <point x="607" y="738" type="line" smooth="yes"/>
      <point x="718" y="862"/>
      <point x="801" y="954"/>
      <point x="801" y="1087" type="curve"/>
      <point x="801" y="1255"/>
      <point x="706" y="1353"/>
      <point x="536" y="1353" type="curve" smooth="yes"/>
      <point x="411" y="1353"/>
      <point x="286" y="1313"/>
      <point x="202" y="1225" type="curve"/>
      <point x="144" y="1375" type="line"/>
      <point x="227" y="1452.4"/>
      <point x="354" y="1504"/>
      <point x="548" y="1504" type="curve" smooth="yes"/>
      <point x="820" y="1504"/>
      <point x="994" y="1344.39"/>
      <point x="994" y="1099" type="curve"/>
      <point x="994" y="924"/>
      <point x="882" y="769"/>
      <point x="728" y="605" type="curve" smooth="yes"/>
      <point x="306" y="154" type="line"/>
      <point x="999" y="154" type="line"/>
      <point x="988" y="0" type="line"/>
    </contour>
  </outline>
</glyph>
<glyph name="three" format="1">
  <advance width="1103"/>
  <unicode hex="0033"/>
  <outline>
    <contour>
      <point x="491.04" y="-22.7695" type="curve" smooth="yes"/>
      <point x="298.98" y="-22.7695"/>
      <point x="159.39" y="39.5996"/>
      <point x="103.95" y="92.0703" type="curve"/>
      <point x="159.39" y="237.6" type="line"/>
      <point x="233.64" y="179.19"/>
      <point x="342.54" y="127.71"/>
      <point x="492.03" y="127.71" type="curve" smooth="yes"/>
      <point x="686.07" y="127.71"/>
      <point x="815.76" y="227.7"/>
      <point x="815.76" y="407.88" type="curve" smooth="yes"/>
      <point x="815.76" y="652.144"/>
      <point x="648" y="709.834"/>
      <point x="379.17" y="709.79" type="curve" smooth="yes"/>
      <point x="319.77" y="709.78" type="line"/>
      <point x="319.77" y="857.29" type="line"/>
      <point x="369.27" y="857.29" type="line" smooth="yes"/>
      <point x="578.16" y="861.25"/>
      <point x="763.29" y="899.86"/>
      <point x="763.29" y="1116.67" type="curve" smooth="yes"/>
      <point x="763.29" y="1278.64"/>
      <point x="666.27" y="1352.27"/>
      <point x="491.04" y="1352.27" type="curve" smooth="yes"/>
      <point x="355.41" y="1352.27"/>
      <point x="237.6" y="1309.53"/>
      <point x="159.39" y="1248.34" type="curve"/>
      <point x="103.95" y="1392.88" type="line"/>
      <point x="194.04" y="1460.58"/>
      <point x="323.73" y="1503.75"/>
      <point x="528.66" y="1503.75" type="curve" smooth="yes"/>
      <point x="747.45" y="1503.75"/>
      <point x="953.37" y="1375.4"/>
      <point x="953.37" y="1139.44" type="curve" smooth="yes"/>
      <point x="953.37" y="949.36"/>
      <point x="853.38" y="833.53"/>
      <point x="693" y="784.03" type="curve"/>
      <point x="874.17" y="744.946"/>
      <point x="989.01" y="611.087"/>
      <point x="989.01" y="405.9" type="curve" smooth="yes"/>
      <point x="989.01" y="141.57"/>
      <point x="778.14" y="-22.7695"/>
    </contour>
  </outline>
</glyph>
<glyph name="eight" format="1">
  <advance width="1182"/>
  <unicode hex="0038"/>
  <outline>
    <contour>
      <point x="594" y="-23" type="curve" smooth="yes"/>
      <point x="327" y="-23"/>
      <point x="103" y="119"/>
      <point x="103" y="385" type="curve" smooth="yes"/>
      <point x="103" y="572"/>
      <point x="219" y="715"/>
      <point x="414" y="777" type="curve"/>
      <point x="241" y="838"/>
      <point x="134" y="955"/>
      <point x="134" y="1136" type="curve" smooth="yes"/>
      <point x="134" y="1371.36"/>
      <point x="329" y="1504"/>
      <point x="594" y="1504" type="curve" smooth="yes"/>
      <point x="858" y="1504"/>
      <point x="1049" y="1371.36"/>
      <point x="1049" y="1136" type="curve" smooth="yes"/>
      <point x="1049" y="955"/>
      <point x="948" y="838"/>
      <point x="791" y="777" type="curve"/>
      <point x="970" y="715"/>
      <point x="1080" y="572"/>
      <point x="1080" y="385" type="curve" smooth="yes"/>
      <point x="1080" y="119"/>
      <point x="861" y="-23"/>
    </contour>
    <contour>
      <point x="594" y="692" type="curve"/>
      <point x="415" y="652"/>
      <point x="279" y="556"/>
      <point x="279" y="397" type="curve" smooth="yes"/>
      <point x="279" y="230"/>
      <point x="415" y="129"/>
      <point x="594" y="129" type="curve" smooth="yes"/>
      <point x="773" y="129"/>
      <point x="904" y="230"/>
      <point x="904" y="397" type="curve" smooth="yes"/>
      <point x="904" y="556"/>
      <point x="773" y="652"/>
    </contour>
    <contour>
      <point x="594" y="1353" type="curve" smooth="yes"/>
      <point x="446" y="1353"/>
      <point x="311" y="1279"/>
      <point x="311" y="1140" type="curve" smooth="yes"/>
      <point x="311" y="982"/>
      <point x="411" y="883"/>
      <point x="594" y="842" type="curve"/>
      <point x="777" y="883"/>
      <point x="873" y="982"/>
      <point x="873" y="1140" type="curve" smooth="yes"/>
      <point x="873" y="1279"/>
      <point x="742" y="1353"/>
    </contour>
  </outline>
</glyph>
<glyph name="nine" format="1">
  <advance width="1165"/>
  <unicode hex="0039"/>
  <outline>
    <contour>
      <point x="556" y="578" type="curve" smooth="yes"/>
      <point x="304" y="578"/>
      <point x="86" y="757"/>
      <point x="86" y="1033" type="curve" smooth="yes"/>
      <point x="86" y="1299.43"/>
      <point x="286" y="1504"/>
      <point x="592" y="1504" type="curve" smooth="yes"/>
      <point x="912" y="1504"/>
      <point x="1090" y="1291.44"/>
      <point x="1090" y="1022" type="curve" smooth="yes"/>
      <point x="1090" y="824"/>
      <point x="1026" y="692"/>
      <point x="872" y="484" type="curve"/>
      <point x="775" y="360"/>
      <point x="470" y="0"/>
      <point x="470" y="0" type="curve"/>
      <point x="250" y="0" type="line"/>
      <point x="781" y="638" type="line"/>
      <point x="717" y="604"/>
      <point x="636" y="578"/>
    </contour>
    <contour>
      <point x="901" y="1041" type="curve" smooth="yes"/>
      <point x="901" y="1214"/>
      <point x="804" y="1353"/>
      <point x="598" y="1353" type="curve" smooth="yes"/>
      <point x="393" y="1353"/>
      <point x="275" y="1208"/>
      <point x="275" y="1036" type="curve" smooth="yes"/>
      <point x="275" y="852"/>
      <point x="390" y="728"/>
      <point x="592" y="728" type="curve" smooth="yes"/>
      <point x="814" y="728"/>
      <point x="901" y="869"/>
    </contour>
  </outline>
</glyph>
<glyph name="A" format="1">
  <advance width="1374"/>
  <unicode hex="0041"/>
  <outline>
    <contour>
      <point x="928" y="614" type="line"/>
      <point x="928" y="614"/>
      <point x="717" y="1227"/>
      <point x="695" y="1303" type="curve"/>
      <point x="675" y="1237"/>
      <point x="452" y="614"/>
      <point x="452" y="614" type="curve"/>
    </contour>
    <contour>
      <point x="1157" y="0" type="line"/>
      <point x="984" y="469" type="line"/>
      <point x="394" y="469" type="line"/>
      <point x="215" y="0" type="line"/>
      <point x="39" y="0" type="line"/>
      <point x="607" y="1479" type="line"/>
      <point x="784" y="1479" type="line"/>
      <point x="1335" y="0" type="line"/>
    </contour>
  </outline>
</glyph>
<glyph name="B" format="1">
  <advance width="1324"/>
  <unicode hex="0042"/>
  <outline>
    <contour>
      <point x="346" y="704" type="line"/>
      <point x="346" y="142" type="line"/>
      <point x="662" y="142" type="line" smooth="yes"/>
      <point x="910" y="142"/>
      <point x="1038" y="230"/>
      <point x="1038" y="428" type="curve" smooth="yes"/>
      <point x="1038" y="639"/>
      <point x="888" y="704"/>
      <point x="613" y="704" type="curve" smooth="yes"/>
    </contour>
    <contour>
      <point x="346" y="843" type="line"/>
      <point x="663" y="843" type="line" smooth="yes"/>
      <point x="854" y="843"/>
      <point x="971" y="894"/>
      <point x="971" y="1089" type="curve" smooth="yes"/>
      <point x="971" y="1284"/>
      <point x="837" y="1333"/>
      <point x="588" y="1333" type="curve" smooth="yes"/>
      <point x="346" y="1333" type="line"/>
    </contour>
    <contour>
      <point x="173" y="1479" type="line"/>
      <point x="597" y="1479" type="line" smooth="yes"/>
      <point x="972" y="1479"/>
      <point x="1152" y="1372"/>
      <point x="1152" y="1115" type="curve" smooth="yes"/>
      <point x="1152" y="1043"/>
      <point x="1139" y="856"/>
      <point x="909" y="783" type="curve"/>
      <point x="1114" y="744"/>
      <point x="1219" y="598"/>
      <point x="1219" y="421" type="curve" smooth="yes"/>
      <point x="1219" y="159"/>
      <point x="1049" y="0"/>
      <point x="696" y="0" type="curve" smooth="yes"/>
      <point x="173" y="0" type="line"/>
    </contour>
  </outline>
</glyph>
<glyph name="C" format="1">
  <advance width="1355"/>
  <unicode hex="0043"/>
  <outline>
    <contour>
      <point x="825" y="1352" type="curve" smooth="yes"/>
      <point x="483" y="1352"/>
      <point x="299" y="1089"/>
      <point x="299" y="738" type="curve" smooth="yes"/>
      <point x="299" y="389"/>
      <point x="465" y="130"/>
      <point x="829" y="130" type="curve" smooth="yes"/>
      <point x="955" y="130"/>
      <point x="1076" y="167"/>
      <point x="1183" y="219" type="curve"/>
      <point x="1212" y="72" type="line"/>
      <point x="1112" y="9"/>
      <point x="980" y="-22"/>
      <point x="809" y="-22" type="curve" smooth="yes"/>
      <point x="355" y="-22"/>
      <point x="114" y="289"/>
      <point x="114" y="745" type="curve" smooth="yes"/>
      <point x="114" y="1190"/>
      <point x="379" y="1504"/>
      <point x="823" y="1504" type="curve" smooth="yes"/>
      <point x="998" y="1504"/>
      <point x="1134" y="1464"/>
      <point x="1243" y="1394" type="curve"/>
      <point x="1175" y="1253" type="line"/>
      <point x="1077" y="1312"/>
      <point x="957" y="1352"/>
    </contour>
  </outline>
</glyph>
<glyph name="D" format="1">
  <advance width="1501"/>
  <unicode hex="0044"/>
  <outline>
    <contour>
      <point x="1204" y="736" type="curve" smooth="yes"/>
      <point x="1204" y="1162"/>
      <point x="971" y="1328"/>
      <point x="578" y="1328" type="curve" smooth="yes"/>
      <point x="346" y="1328" type="line"/>
      <point x="346" y="151" type="line"/>
      <point x="607" y="151" type="line" smooth="yes"/>
      <point x="993" y="151"/>
      <point x="1204" y="347"/>
    </contour>
    <contour>
      <point x="1389" y="741" type="curve" smooth="yes"/>
      <point x="1389" y="252"/>
      <point x="1094" y="0"/>
      <point x="612" y="0" type="curve" smooth="yes"/>
      <point x="173" y="0" type="line"/>
      <point x="173" y="1479" type="line"/>
      <point x="583" y="1479" type="line" smooth="yes"/>
      <point x="1068" y="1479"/>
      <point x="1389" y="1255"/>
    </contour>
  </outline>
</glyph>
<glyph name="E" format="1">
  <advance width="1138"/>
  <unicode hex="0045"/>
  <outline>
    <contour>
      <point x="173" y="0" type="line"/>
      <point x="173" y="1479" type="line"/>
      <point x="1021" y="1479" type="line"/>
      <point x="1014" y="1326" type="line"/>
      <point x="346" y="1326" type="line"/>
      <point x="346" y="842" type="line"/>
      <point x="981" y="842" type="line"/>
      <point x="981" y="691" type="line"/>
      <point x="346" y="691" type="line"/>
      <point x="346" y="153" type="line"/>
      <point x="1036" y="153" type="line"/>
      <point x="1028" y="0" type="line"/>
    </contour>
  </outline>
</glyph>
<glyph name="F" format="1">
  <advance width="1060"/>
  <unicode hex="0046"/>
  <outline>
    <contour>
      <point x="346" y="0" type="line"/>
      <point x="173" y="0" type="line"/>
      <point x="173" y="1479" type="line"/>
      <point x="994" y="1479" type="line"/>
      <point x="987" y="1326" type="line"/>
      <point x="346" y="1326" type="line"/>
      <point x="346" y="807" type="line"/>
      <point x="957" y="807" type="line"/>
      <point x="957" y="660" type="line"/>
      <point x="346" y="660" type="line"/>
    </contour>
  </outline>
</glyph>
<glyph name="G" format="1">
  <advance width="1469"/>
  <unicode hex="0047"/>
  <outline>
    <contour>
      <point x="822" y="-22" type="curve" smooth="yes"/>
      <point x="363" y="-22"/>
      <point x="116" y="297"/>
      <point x="116" y="738" type="curve" smooth="yes"/>
      <point x="116" y="1184"/>
      <point x="383" y="1504"/>
      <point x="852" y="1504" type="curve" smooth="yes"/>
      <point x="1026" y="1504"/>
      <point x="1175" y="1463"/>
      <point x="1300" y="1388" type="curve"/>
      <point x="1234" y="1245" type="line"/>
      <point x="1128" y="1306"/>
      <point x="988" y="1352"/>
      <point x="854" y="1352" type="curve" smooth="yes"/>
      <point x="486" y="1352"/>
      <point x="300" y="1089"/>
      <point x="300" y="738" type="curve" smooth="yes"/>
      <point x="300" y="374"/>
      <point x="479" y="129"/>
      <point x="855" y="129" type="curve" smooth="yes"/>
      <point x="968" y="129"/>
      <point x="1090" y="160"/>
      <point x="1172" y="192" type="curve"/>
      <point x="1172" y="614" type="line"/>
      <point x="823" y="614" type="line"/>
      <point x="829" y="765" type="line"/>
      <point x="1334" y="765" type="line"/>
      <point x="1334" y="89" type="line"/>
      <point x="1166" y="9"/>
      <point x="1024" y="-22"/>
    </contour>
  </outline>
</glyph>
<glyph name="H" format="1">
  <advance width="1486"/>
  <unicode hex="0048"/>
  <outline>
    <contour>
      <point x="1313" y="0" type="line"/>
      <point x="1140" y="0" type="line"/>
      <point x="1140" y="692" type="line"/>
      <point x="346" y="692" type="line"/>
      <point x="346" y="0" type="line"/>
      <point x="173" y="0" type="line"/>
      <point x="173" y="1479" type="line"/>
      <point x="346" y="1479" type="line"/>
      <point x="346" y="844" type="line"/>
      <point x="1140" y="844" type="line"/>
      <point x="1140" y="1479" type="line"/>
      <point x="1313" y="1479" type="line"/>
    </contour>
  </outline>
</glyph>
<glyph name="J" format="1">
  <advance width="651"/>
  <unicode hex="004A"/>
  <outline>
    <contour>
      <point x="306" y="181" type="curve" smooth="yes"/>
      <point x="306" y="1479" type="line"/>
      <point x="483" y="1479" type="line"/>
      <point x="483" y="241" type="line" smooth="yes"/>
      <point x="483" y="-67"/>
      <point x="448" y="-214"/>
      <point x="96" y="-214" type="curve" smooth="yes"/>
      <point x="61" y="-214" type="line"/>
      <point x="40" y="-72" type="line"/>
      <point x="114" y="-72" type="line" smooth="yes"/>
      <point x="296" y="-72"/>
      <point x="306" y="33"/>
    </contour>
  </outline>
</glyph>
<glyph name="L" format="1">
  <advance width="1045"/>
  <unicode hex="004C"/>
  <outline>
    <contour>
      <point x="173" y="0" type="line"/>
      <point x="173" y="1479" type="line"/>
      <point x="347" y="1479" type="line"/>
      <point x="347" y="154" type="line"/>
      <point x="998" y="154" type="line"/>
      <point x="992" y="0" type="line"/>
    </contour>
  </outline>
</glyph>
<glyph name="M" format="1">
  <advance width="1815"/>
  <unicode hex="004D"/>
  <outline>
    <contour>
      <point x="821" y="91" type="line"/>
      <point x="367" y="1147" type="line"/>
      <point x="329" y="1248" type="line"/>
      <point x="336" y="886" type="line"/>
      <point x="336" y="0" type="line"/>
      <point x="174" y="0" type="line"/>
      <point x="174" y="1479" type="line"/>
      <point x="398" y="1479" type="line"/>
      <point x="913" y="301" type="line"/>
      <point x="1423" y="1479" type="line"/>
      <point x="1641" y="1479" type="line"/>
      <point x="1641" y="0" type="line"/>
      <point x="1473" y="0" type="line"/>
      <point x="1473" y="890" type="line"/>
      <point x="1480" y="1244" type="line"/>
      <point x="1443" y="1143" type="line"/>
      <point x="990" y="91" type="line"/>
    </contour>
  </outline>
</glyph>
<glyph name="N" format="1">
  <advance width="1514"/>
  <unicode hex="004E"/>
  <outline>
    <contour>
      <point x="1341" y="0" type="line"/>
      <point x="1145" y="0" type="line"/>
      <point x="377" y="1164" type="line"/>
      <point x="327" y="1233" type="line"/>
      <point x="332" y="1102"/>
      <point x="335" y="977"/>
      <point x="335" y="858" type="curve" smooth="yes"/>
      <point x="335" y="0" type="line"/>
      <point x="173" y="0" type="line"/>
      <point x="173" y="1479" type="line"/>
      <point x="366" y="1479" type="line"/>
      <point x="1136" y="315" type="line"/>
      <point x="1187" y="246" type="line"/>
      <point x="1187" y="246"/>
      <point x="1180" y="565"/>
      <point x="1180" y="615" type="curve" smooth="yes"/>
      <point x="1180" y="1479" type="line"/>
      <point x="1341" y="1479" type="line"/>
    </contour>
  </outline>
</glyph>
<glyph name="O" format="1">
  <advance width="1638"/>
  <unicode hex="004F"/>
  <outline>
    <contour>
      <point x="302" y="739" type="curve" smooth="yes"/>
      <point x="302" y="369"/>
      <point x="471" y="129"/>
      <point x="820" y="129" type="curve" smooth="yes"/>
      <point x="1170" y="129"/>
      <point x="1335" y="369"/>
      <point x="1335" y="739" type="curve" smooth="yes"/>
      <point x="1335" y="1122"/>
      <point x="1163" y="1353"/>
      <point x="821" y="1353" type="curve" smooth="yes"/>
      <point x="479" y="1353"/>
      <point x="302" y="1123"/>
    </contour>
    <contour>
      <point x="1520" y="739" type="curve" smooth="yes"/>
      <point x="1520" y="288"/>
      <point x="1270" y="-22"/>
      <point x="820" y="-22" type="curve" smooth="yes"/>
      <point x="364" y="-22"/>
      <point x="118" y="282"/>
      <point x="118" y="740" type="curve" smooth="yes"/>
      <point x="118" y="1208.39"/>
      <point x="373" y="1504"/>
      <point x="821" y="1504" type="curve" smooth="yes"/>
      <point x="1262" y="1504"/>
      <point x="1520" y="1205.39"/>
    </contour>
  </outline>
</glyph>
<glyph name="P" format="1">
  <advance width="1232"/>
  <unicode hex="0050"/>
  <outline>
    <contour>
      <point x="350" y="0" type="line"/>
      <point x="173" y="0" type="line"/>
      <point x="173" y="1479" type="line"/>
      <point x="655" y="1479" type="line" smooth="yes"/>
      <point x="939" y="1479"/>
      <point x="1157" y="1365"/>
      <point x="1157" y="1076" type="curve" smooth="yes"/>
      <point x="1157" y="808"/>
      <point x="1037" y="625"/>
      <point x="594" y="625" type="curve" smooth="yes"/>
      <point x="532" y="625"/>
      <point x="426" y="631"/>
      <point x="350" y="638" type="curve"/>
    </contour>
    <contour>
      <point x="611" y="778" type="curve" smooth="yes"/>
      <point x="950" y="778"/>
      <point x="977" y="932"/>
      <point x="977" y="1073" type="curve" smooth="yes"/>
      <point x="977" y="1250"/>
      <point x="844" y="1320"/>
      <point x="659" y="1320" type="curve" smooth="yes"/>
      <point x="350" y="1320" type="line"/>
      <point x="350" y="780" type="line"/>
      <point x="350" y="780"/>
      <point x="543" y="778"/>
    </contour>
  </outline>
</glyph>
<glyph name="Q" format="1">
  <advance width="1638"/>
  <unicode hex="0051"/>
  <outline>
    <contour>
      <point x="1273" y="-470" type="line"/>
      <point x="1234" y="-431"/>
      <point x="1033" y="-188"/>
      <point x="948" y="-13" type="curve"/>
      <point x="907" y="-19"/>
      <point x="865" y="-22"/>
      <point x="820" y="-22" type="curve" smooth="yes"/>
      <point x="364" y="-22"/>
      <point x="118" y="282"/>
      <point x="118" y="740" type="curve" smooth="yes"/>
      <point x="118" y="1208.39"/>
      <point x="373" y="1504"/>
      <point x="821" y="1504" type="curve" smooth="yes"/>
      <point x="1262" y="1504"/>
      <point x="1520" y="1205.39"/>
      <point x="1520" y="739" type="curve" smooth="yes"/>
      <point x="1520" y="399"/>
      <point x="1378" y="139"/>
      <point x="1114" y="31" type="curve"/>
      <point x="1114" y="31"/>
      <point x="1261" y="-221"/>
      <point x="1391" y="-350" type="curve"/>
    </contour>
    <contour>
      <point x="820" y="129" type="curve" smooth="yes"/>
      <point x="1170" y="129"/>
      <point x="1335" y="369"/>
      <point x="1335" y="739" type="curve" smooth="yes"/>
      <point x="1335" y="1122"/>
      <point x="1163" y="1353"/>
      <point x="821" y="1353" type="curve" smooth="yes"/>
      <point x="479" y="1353"/>
      <point x="302" y="1123"/>
      <point x="302" y="739" type="curve" smooth="yes"/>
      <point x="302" y="369"/>
      <point x="471" y="129"/>
    </contour>
  </outline>
</glyph>
<glyph name="R" format="1">
  <advance width="1349"/>
  <unicode hex="0052"/>
  <outline>
    <contour>
      <point x="351" y="1324" type="line"/>
      <point x="352" y="841" type="line"/>
      <point x="475" y="840"/>
      <point x="597" y="837"/>
      <point x="720" y="837" type="curve" smooth="yes"/>
      <point x="983" y="837"/>
      <point x="1060" y="920"/>
      <point x="1060" y="1085" type="curve" smooth="yes"/>
      <point x="1060" y="1241"/>
      <point x="980" y="1324"/>
      <point x="747" y="1324" type="curve" smooth="yes"/>
    </contour>
    <contour>
      <point x="1300" y="0" type="line"/>
      <point x="1100" y="0" type="line"/>
      <point x="896" y="464" type="line" smooth="yes"/>
      <point x="857" y="552"/>
      <point x="821" y="638"/>
      <point x="790" y="689" type="curve"/>
      <point x="761" y="687"/>
      <point x="651" y="684"/>
      <point x="617" y="684" type="curve" smooth="yes"/>
      <point x="598" y="684"/>
      <point x="352" y="692"/>
      <point x="352" y="692" type="curve"/>
      <point x="352" y="0" type="line"/>
      <point x="175" y="0" type="line"/>
      <point x="174" y="1479" type="line"/>
      <point x="647" y="1479" type="line" smooth="yes"/>
      <point x="1003" y="1479"/>
      <point x="1229" y="1425"/>
      <point x="1229" y="1088" type="curve" smooth="yes"/>
      <point x="1229" y="911"/>
      <point x="1129" y="775"/>
      <point x="948" y="724" type="curve"/>
      <point x="948" y="719"/>
      <point x="1024" y="597"/>
      <point x="1058" y="522" type="curve" smooth="yes"/>
    </contour>
  </outline>
</glyph>
<glyph name="S" format="1">
  <advance width="1279"/>
  <unicode hex="0053"/>
  <outline>
    <contour>
      <point x="166" y="244" type="line"/>
      <point x="300" y="178"/>
      <point x="470" y="130"/>
      <point x="661" y="130" type="curve" smooth="yes"/>
      <point x="873" y="130"/>
      <point x="986" y="221"/>
      <point x="986" y="417" type="curve" smooth="yes"/>
      <point x="986" y="537"/>
      <point x="935" y="618"/>
      <point x="745" y="666" type="curve" smooth="yes"/>
      <point x="453" y="740" type="line" smooth="yes"/>
      <point x="247" y="792"/>
      <point x="119" y="903"/>
      <point x="119" y="1101" type="curve" smooth="yes"/>
      <point x="119" y="1383"/>
      <point x="334" y="1504"/>
      <point x="662" y="1504" type="curve" smooth="yes"/>
      <point x="845" y="1504"/>
      <point x="1007" y="1461.4"/>
      <point x="1109" y="1398" type="curve"/>
      <point x="1059" y="1257" type="line"/>
      <point x="980" y="1301"/>
      <point x="820" y="1353"/>
      <point x="658" y="1353" type="curve" smooth="yes"/>
      <point x="420" y="1353"/>
      <point x="296" y="1278"/>
      <point x="296" y="1112" type="curve" smooth="yes"/>
      <point x="296" y="995"/>
      <point x="374" y="933"/>
      <point x="518" y="897" type="curve" smooth="yes"/>
      <point x="797" y="828" type="line" smooth="yes"/>
      <point x="1021" y="773"/>
      <point x="1158" y="667"/>
      <point x="1158" y="423" type="curve" smooth="yes"/>
      <point x="1158" y="118"/>
      <point x="956" y="-23"/>
      <point x="650" y="-23" type="curve" smooth="yes"/>
      <point x="390" y="-23"/>
      <point x="205" y="44"/>
      <point x="114" y="100" type="curve"/>
    </contour>
  </outline>
</glyph>
<glyph name="T" format="1">
  <advance width="1160"/>
  <unicode hex="0054"/>
  <outline>
    <contour>
      <point x="667" y="0" type="line"/>
      <point x="493" y="0" type="line"/>
      <point x="493" y="1326" type="line"/>
      <point x="38" y="1326" type="line"/>
      <point x="38" y="1479" type="line"/>
      <point x="1122" y="1479" type="line"/>
      <point x="1122" y="1326" type="line"/>
      <point x="667" y="1326" type="line"/>
    </contour>
  </outline>
</glyph>
<glyph name="U" format="1">
  <advance width="1453"/>
  <unicode hex="0055"/>
  <outline>
    <contour>
      <point x="1287" y="1479" type="line"/>
      <point x="1287" y="519" type="line" smooth="yes"/>
      <point x="1287" y="192"/>
      <point x="1116" y="-22"/>
      <point x="723" y="-22" type="curve" smooth="yes"/>
      <point x="330" y="-22"/>
      <point x="166" y="192"/>
      <point x="166" y="521" type="curve" smooth="yes"/>
      <point x="166" y="1479" type="line"/>
      <point x="340" y="1479" type="line"/>
      <point x="340" y="518" type="line" smooth="yes"/>
      <point x="340" y="250"/>
      <point x="464" y="127"/>
      <point x="729" y="127" type="curve" smooth="yes"/>
      <point x="987" y="127"/>
      <point x="1114" y="251"/>
      <point x="1114" y="519" type="curve" smooth="yes"/>
      <point x="1114" y="1479" type="line"/>
    </contour>
  </outline>
</glyph>
<glyph name="V" format="1">
  <advance width="1348"/>
  <unicode hex="0056"/>
  <outline>
    <contour>
      <point x="1123" y="1479" type="curve"/>
      <point x="1308" y="1479" type="line"/>
      <point x="763" y="0" type="line"/>
      <point x="583" y="0" type="line"/>
      <point x="44" y="1479" type="line"/>
      <point x="229" y="1479" type="line"/>
      <point x="562" y="541" type="line" smooth="yes"/>
      <point x="603" y="424"/>
      <point x="640" y="310"/>
      <point x="673" y="196" type="curve"/>
      <point x="684" y="250"/>
      <point x="732" y="383"/>
      <point x="789" y="544" type="curve" smooth="yes"/>
      <point x="894" y="844"/>
      <point x="1022" y="1195"/>
    </contour>
  </outline>
</glyph>
<glyph name="W" format="1">
  <advance width="2137"/>
  <unicode hex="0057"/>
  <outline>
    <contour>
      <point x="508" y="0" type="line"/>
      <point x="62" y="1479" type="line"/>
      <point x="243" y="1479" type="line"/>
      <point x="609" y="206" type="line"/>
      <point x="975" y="1452" type="line"/>
      <point x="1170" y="1452" type="line"/>
      <point x="1525" y="205" type="line"/>
      <point x="1894" y="1479" type="line"/>
      <point x="2075" y="1479" type="line"/>
      <point x="1623" y="0" type="line"/>
      <point x="1434" y="0" type="line"/>
      <point x="1074" y="1243" type="line"/>
      <point x="696" y="0" type="line"/>
    </contour>
  </outline>
</glyph>
<glyph name="X" format="1">
  <advance width="1308"/>
  <unicode hex="0058"/>
  <outline>
    <contour>
      <point x="1265" y="0" type="line"/>
      <point x="1066" y="0" type="line"/>
      <point x="654" y="661" type="line"/>
      <point x="231" y="0" type="line"/>
      <point x="43" y="0" type="line"/>
      <point x="549" y="772" type="line"/>
      <point x="76" y="1479" type="line"/>
      <point x="277" y="1479" type="line"/>
      <point x="660" y="887" type="line"/>
      <point x="1058" y="1479" type="line"/>
      <point x="1243" y="1479" type="line"/>
      <point x="767" y="775" type="line"/>
    </contour>
  </outline>
</glyph>
<glyph name="Y" format="1">
  <advance width="1276"/>
  <unicode hex="0059"/>
  <outline>
    <contour>
      <point x="632" y="754" type="line"/>
      <point x="1048" y="1479" type="line"/>
      <point x="1236" y="1479" type="line"/>
      <point x="714" y="590" type="line"/>
      <point x="714" y="0" type="line"/>
      <point x="539" y="0" type="line"/>
      <point x="539" y="586" type="line"/>
      <point x="40" y="1479" type="line"/>
      <point x="227" y="1479" type="line"/>
    </contour>
  </outline>
</glyph>
<glyph name="Z" format="1">
  <advance width="1245"/>
  <unicode hex="005A"/>
  <outline>
    <contour>
      <point x="116" y="0" type="line"/>
      <point x="116" y="136" type="line"/>
      <point x="920" y="1325" type="line"/>
      <point x="145" y="1325" type="line"/>
      <point x="145" y="1479" type="line"/>
      <point x="1141" y="1479" type="line"/>
      <point x="1141" y="1350" type="line"/>
      <point x="332" y="154" type="line"/>
      <point x="1148" y="154" type="line"/>
      <point x="1142" y="0" type="line"/>
    </contour>
  </outline>
</glyph>
<glyph name="underscore" format="1">
  <advance width="1085"/>
  <unicode hex="005f"/>
  <outline>
    <contour>
      <point x="1012" y="-304" type="line" smooth="no"/>
      <point x="73" y="-304" type="line" smooth="no"/>
      <point x="73" y="-170" type="line" smooth="no"/>
      <point x="1012" y="-170" type="line" smooth="no"/>
    </contour>
  </outline>
</glyph>
<glyph name="a" format="1">
  <advance width="1101"/>
  <unicode hex="0061"/>
  <outline>
    <contour>
      <point x="461" y="112" type="curve" smooth="yes"/>
      <point x="616" y="112"/>
      <point x="752" y="203"/>
      <point x="787" y="354" type="curve"/>
      <point x="787" y="539" type="line"/>
      <point x="760" y="537"/>
      <point x="683" y="529"/>
      <point x="654" y="528" type="curve"/>
      <point x="366" y="503"/>
      <point x="266" y="437"/>
      <point x="266" y="283" type="curve" smooth="yes"/>
      <point x="266" y="162"/>
      <point x="343" y="112"/>
    </contour>
    <contour>
      <point x="833" y="0" type="line"/>
      <point x="827" y="26"/>
      <point x="818" y="138"/>
      <point x="813" y="164" type="curve"/>
      <point x="703" y="32"/>
      <point x="578" y="-23"/>
      <point x="436" y="-23" type="curve" smooth="yes"/>
      <point x="237" y="-23"/>
      <point x="95" y="75"/>
      <point x="95" y="282" type="curve" smooth="yes"/>
      <point x="95" y="518"/>
      <point x="291" y="614"/>
      <point x="590" y="639" type="curve" smooth="yes"/>
      <point x="656" y="645"/>
      <point x="723" y="650"/>
      <point x="789" y="656" type="curve"/>
      <point x="789" y="753" type="line" smooth="yes"/>
      <point x="789" y="905"/>
      <point x="708" y="981"/>
      <point x="551" y="981" type="curve" smooth="yes"/>
      <point x="445" y="981"/>
      <point x="327" y="951"/>
      <point x="224" y="901" type="curve"/>
      <point x="215" y="922"/>
      <point x="184" y="1009"/>
      <point x="176" y="1030" type="curve"/>
      <point x="271" y="1083"/>
      <point x="412" y="1120"/>
      <point x="554" y="1120" type="curve" smooth="yes"/>
      <point x="822" y="1120"/>
      <point x="954" y="1018"/>
      <point x="954" y="726" type="curve" smooth="yes"/>
      <point x="954" y="0" type="line"/>
    </contour>
  </outline>
</glyph>
<glyph name="g" format="1">
  <advance width="1207"/>
  <unicode hex="0067"/>
  <outline>
    <contour>
      <point x="589" y="143" type="curve" smooth="yes"/>
      <point x="825" y="143"/>
      <point x="909" y="319"/>
      <point x="909" y="516" type="curve" smooth="yes"/>
      <point x="909" y="597" type="line" smooth="yes"/>
      <point x="909" y="805"/>
      <point x="818" y="979"/>
      <point x="590" y="979" type="curve" smooth="yes"/>
      <point x="352" y="979"/>
      <point x="262" y="744"/>
      <point x="262" y="554" type="curve" smooth="yes"/>
      <point x="262" y="366"/>
      <point x="361" y="143"/>
    </contour>
    <contour>
      <point x="332" y="-502" type="line"/>
      <point x="317" y="-356" type="line"/>
      <point x="521" y="-356" type="line" smooth="yes"/>
      <point x="866" y="-356"/>
      <point x="904" y="-193"/>
      <point x="904" y="83" type="curve" smooth="yes"/>
      <point x="904" y="180" type="line"/>
      <point x="832" y="76"/>
      <point x="738" y="1"/>
      <point x="564" y="1" type="curve" smooth="yes"/>
      <point x="239" y="1"/>
      <point x="90" y="294"/>
      <point x="90" y="545" type="curve" smooth="yes"/>
      <point x="90" y="857"/>
      <point x="241" y="1120"/>
      <point x="576" y="1120" type="curve" smooth="yes"/>
      <point x="722" y="1120"/>
      <point x="825" y="1064"/>
      <point x="909" y="951" type="curve"/>
      <point x="909" y="1095" type="line"/>
      <point x="1072" y="1095" type="line"/>
      <point x="1072" y="79" type="line" smooth="yes"/>
      <point x="1072" y="-206"/>
      <point x="1030" y="-502"/>
      <point x="517" y="-502" type="curve" smooth="yes"/>
    </contour>
  </outline>
</glyph>
<glyph name="j" format="1">
  <advance width="489"/>
  <unicode hex="006A"/>
  <outline>
    <contour>
      <point x="348" y="1095" type="line"/>
      <point x="348" y="-139" type="line" smooth="yes"/>
      <point x="348" y="-407"/>
      <point x="288" y="-502"/>
      <point x="15" y="-502" type="curve" smooth="yes"/>
      <point x="-37" y="-502" type="line"/>
      <point x="-59" y="-351" type="line"/>
      <point x="-7" y="-351" type="line" smooth="yes"/>
      <point x="175" y="-351"/>
      <point x="180" y="-286"/>
      <point x="180" y="-121" type="curve" smooth="yes"/>
      <point x="180" y="1095" type="line"/>
    </contour>
    <contour>
      <point x="348" y="1496" type="line"/>
      <point x="348" y="1298" type="line"/>
      <point x="180" y="1298" type="line"/>
      <point x="180" y="1496" type="line"/>
    </contour>
  </outline>
</glyph>
<glyph name="k" format="1">
  <advance width="1050"/>
  <unicode hex="006B"/>
  <outline>
    <contour>
      <point x="148" y="0" type="line"/>
      <point x="148" y="1523" type="line"/>
      <point x="314" y="1533" type="line"/>
      <point x="314" y="736" type="line"/>
      <point x="314" y="596" type="line"/>
      <point x="326" y="609"/>
      <point x="338" y="623"/>
      <point x="351" y="637" type="curve" smooth="yes"/>
      <point x="478" y="775"/>
      <point x="653" y="946"/>
      <point x="801" y="1095" type="curve"/>
      <point x="1013" y="1095" type="line"/>
      <point x="557" y="635" type="line"/>
      <point x="1045" y="0" type="line"/>
      <point x="837" y="0" type="line"/>
      <point x="436" y="540" type="line"/>
      <point x="314" y="435" type="line"/>
      <point x="314" y="0" type="line"/>
    </contour>
  </outline>
</glyph>
<glyph name="l" format="1">
  <advance width="639"/>
  <unicode hex="006C"/>
  <outline>
    <contour>
      <point x="448" y="-8" type="curve" smooth="yes"/>
      <point x="236" y="-8"/>
      <point x="154" y="87"/>
      <point x="154" y="373" type="curve" smooth="yes"/>
      <point x="154" y="1523" type="line"/>
      <point x="320" y="1533" type="line"/>
      <point x="320" y="439" type="line" smooth="yes"/>
      <point x="320" y="194"/>
      <point x="334" y="125"/>
      <point x="487" y="125" type="curve" smooth="yes"/>
      <point x="536" y="125"/>
      <point x="572" y="129"/>
      <point x="597" y="131" type="curve"/>
      <point x="602" y="0" type="line"/>
      <point x="552" y="-5"/>
      <point x="476" y="-8"/>
    </contour>
  </outline>
</glyph>
<glyph name="m" format="1">
  <advance width="1838"/>
  <unicode hex="006D"/>
  <outline>
    <contour>
      <point x="1536" y="0" type="line"/>
      <point x="1536" y="571" type="line" smooth="yes"/>
      <point x="1536" y="808"/>
      <point x="1516" y="977"/>
      <point x="1323" y="977" type="curve" smooth="yes"/>
      <point x="1176" y="977"/>
      <point x="1069" y="894"/>
      <point x="1025" y="752" type="curve"/>
      <point x="1019" y="704"/>
      <point x="1016" y="654"/>
      <point x="1016" y="598" type="curve" smooth="yes"/>
      <point x="1016" y="0" type="line"/>
      <point x="849" y="0" type="line"/>
      <point x="849" y="589" type="line" smooth="yes"/>
      <point x="849" y="817"/>
      <point x="815" y="977"/>
      <point x="632" y="977" type="curve" smooth="yes"/>
      <point x="469" y="977"/>
      <point x="357" y="886"/>
      <point x="321" y="754" type="curve"/>
      <point x="315" y="703"/>
      <point x="312" y="648"/>
      <point x="312" y="587" type="curve" smooth="yes"/>
      <point x="312" y="0" type="line"/>
      <point x="145" y="0" type="line"/>
      <point x="145" y="0"/>
      <point x="143" y="1027"/>
      <point x="143" y="1095" type="curve"/>
      <point x="283" y="1095" type="line"/>
      <point x="304" y="936" type="line"/>
      <point x="364" y="1028"/>
      <point x="488" y="1120"/>
      <point x="655" y="1120" type="curve" smooth="yes"/>
      <point x="868" y="1120"/>
      <point x="951" y="1007"/>
      <point x="982" y="921" type="curve"/>
      <point x="1063" y="1053"/>
      <point x="1192" y="1120"/>
      <point x="1349" y="1120" type="curve" smooth="yes"/>
      <point x="1597" y="1120"/>
      <point x="1703" y="974"/>
      <point x="1703" y="706" type="curve" smooth="yes"/>
      <point x="1703" y="0" type="line"/>
    </contour>
  </outline>
</glyph>
<glyph name="n" format="1">
  <advance width="1183"/>
  <unicode hex="006E"/>
  <outline>
    <contour>
      <point x="145" y="0" type="line"/>
      <point x="145" y="1095" type="line"/>
      <point x="285" y="1095" type="line"/>
      <point x="306" y="930" type="line"/>
      <point x="388" y="1044"/>
      <point x="520" y="1120"/>
      <point x="677" y="1120" type="curve" smooth="yes"/>
      <point x="930" y="1120"/>
      <point x="1048" y="980"/>
      <point x="1048" y="686" type="curve" smooth="yes"/>
      <point x="1048" y="0" type="line"/>
      <point x="880" y="0" type="line"/>
      <point x="880" y="0"/>
      <point x="881" y="660"/>
      <point x="880" y="707" type="curve" smooth="yes"/>
      <point x="875" y="888"/>
      <point x="817" y="977"/>
      <point x="649" y="977" type="curve" smooth="yes"/>
      <point x="471" y="977"/>
      <point x="357" y="880"/>
      <point x="324" y="754" type="curve"/>
      <point x="317" y="707"/>
      <point x="314" y="656"/>
      <point x="314" y="600" type="curve" smooth="yes"/>
      <point x="314" y="0" type="line"/>
    </contour>
  </outline>
</glyph>
<glyph name="o" format="1">
  <advance width="1202"/>
  <unicode hex="006F"/>
  <outline>
    <contour>
      <point x="266" y="546" type="curve" smooth="yes"/>
      <point x="266" y="296"/>
      <point x="376" y="116"/>
      <point x="605" y="116" type="curve" smooth="yes"/>
      <point x="832" y="116"/>
      <point x="936" y="295"/>
      <point x="936" y="548" type="curve" smooth="yes"/>
      <point x="936" y="804"/>
      <point x="836" y="980"/>
      <point x="602" y="980" type="curve" smooth="yes"/>
      <point x="376" y="980"/>
      <point x="266" y="800"/>
    </contour>
    <contour>
      <point x="1109" y="549" type="curve" smooth="yes"/>
      <point x="1109" y="216"/>
      <point x="923" y="-23"/>
      <point x="597" y="-23" type="curve" smooth="yes"/>
      <point x="284" y="-23"/>
      <point x="93" y="219"/>
      <point x="93" y="548" type="curve" smooth="yes"/>
      <point x="93" y="883"/>
      <point x="282" y="1120"/>
      <point x="606" y="1120" type="curve" smooth="yes"/>
      <point x="927" y="1120"/>
      <point x="1109" y="879"/>
    </contour>
  </outline>
</glyph>
<glyph name="s" format="1">
  <advance width="962"/>
  <unicode hex="0073"/>
  <outline>
    <contour>
      <point x="472" y="-23" type="curve" smooth="yes"/>
      <point x="315" y="-23"/>
      <point x="185" y="16"/>
      <point x="112" y="63" type="curve"/>
      <point x="133" y="204" type="line"/>
      <point x="206" y="165"/>
      <point x="330" y="115"/>
      <point x="461" y="115" type="curve" smooth="yes"/>
      <point x="614" y="115"/>
      <point x="707" y="169"/>
      <point x="712" y="287" type="curve"/>
      <point x="712" y="384"/>
      <point x="659" y="427"/>
      <point x="456" y="496" type="curve"/>
      <point x="373" y="525" type="line"/>
      <point x="176" y="591"/>
      <point x="106" y="684"/>
      <point x="105" y="821" type="curve"/>
      <point x="105" y="987"/>
      <point x="244" y="1120"/>
      <point x="492" y="1120" type="curve" smooth="yes"/>
      <point x="622" y="1120"/>
      <point x="733" y="1094"/>
      <point x="831" y="1048" type="curve"/>
      <point x="782" y="920" type="line"/>
      <point x="697" y="955"/>
      <point x="597" y="984"/>
      <point x="492" y="984" type="curve" smooth="yes"/>
      <point x="353" y="984"/>
      <point x="268" y="926"/>
      <point x="268" y="826" type="curve" smooth="yes"/>
      <point x="268" y="739"/>
      <point x="316" y="707"/>
      <point x="483" y="650" type="curve" smooth="yes"/>
      <point x="508" y="641"/>
      <point x="535" y="632"/>
      <point x="566" y="622" type="curve" smooth="yes"/>
      <point x="788" y="550"/>
      <point x="870" y="462"/>
      <point x="870" y="296" type="curve"/>
      <point x="867" y="91"/>
      <point x="712" y="-23"/>
    </contour>
  </outline>
</glyph>
<glyph name="t" format="1">
  <advance width="751"/>
  <unicode hex="0074"/>
  <outline>
    <contour>
      <point x="501" y="-5" type="curve" smooth="yes"/>
      <point x="281" y="-5"/>
      <point x="199" y="97"/>
      <point x="199" y="326" type="curve"/>
      <point x="199" y="326"/>
      <point x="199" y="971"/>
      <point x="199" y="971" type="curve"/>
      <point x="36" y="971" type="line"/>
      <point x="43" y="1081" type="line"/>
      <point x="198" y="1095" type="line"/>
      <point x="255" y="1365" type="line"/>
      <point x="365" y="1369" type="line"/>
      <point x="365" y="1095" type="line"/>
      <point x="670" y="1095" type="line"/>
      <point x="670" y="971" type="line"/>
      <point x="365" y="971" type="line"/>
      <point x="365" y="356" type="line" smooth="yes"/>
      <point x="365" y="188"/>
      <point x="411" y="129"/>
      <point x="533" y="129" type="curve" smooth="yes"/>
      <point x="572" y="129"/>
      <point x="648" y="133"/>
      <point x="676" y="135" type="curve"/>
      <point x="683" y="3" type="line"/>
      <point x="614" y="-3"/>
      <point x="544" y="-5"/>
    </contour>
  </outline>
</glyph>
<glyph name="u" format="1">
  <advance width="1183.0"/>
  <unicode hex="0075"/>
  <outline>
    <contour>
      <point x="1038" y="1095" type="line"/>
      <point x="1038.0" y="0.0" type="line"/>
      <point x="898.0" y="0.0" type="line"/>
      <point x="877.0" y="167.0" type="line"/>
      <point x="795.0" y="53.0"/>
      <point x="663.0" y="-23.0"/>
      <point x="506.0" y="-23.0" type="curve" smooth="yes"/>
      <point x="253.0" y="-23.0"/>
      <point x="135.0" y="117.0"/>
      <point x="135.0" y="411.0" type="curve" smooth="yes"/>
      <point x="135" y="1095" type="line"/>
      <point x="303" y="1095" type="line"/>
      <point x="303" y="1095"/>
      <point x="302.0" y="437.0"/>
      <point x="303.0" y="390.0" type="curve" smooth="yes"/>
      <point x="308.0" y="209.0"/>
      <point x="366.0" y="120.0"/>
      <point x="534.0" y="120.0" type="curve" smooth="yes"/>
      <point x="712.0" y="120.0"/>
      <point x="826.0" y="217.0"/>
      <point x="859.0" y="343.0" type="curve"/>
      <point x="866.0" y="390.0"/>
      <point x="869.0" y="441.0"/>
      <point x="869.0" y="497.0" type="curve" smooth="yes"/>
      <point x="869" y="1095" type="line"/>
    </contour>
  </outline>
</glyph>
<glyph name="v" format="1">
  <advance width="1129"/>
  <unicode hex="0076"/>
  <outline>
    <contour>
      <point x="475" y="0" type="line"/>
      <point x="50" y="1095" type="line"/>
      <point x="229" y="1095" type="line"/>
      <point x="471" y="445" type="line"/>
      <point x="505" y="347"/>
      <point x="571" y="167"/>
      <point x="571" y="167" type="curve"/>
      <point x="598" y="252"/>
      <point x="627" y="336"/>
      <point x="665" y="443" type="curve" smooth="yes"/>
      <point x="718" y="592"/>
      <point x="788" y="784"/>
      <point x="901" y="1095" type="curve"/>
      <point x="1079" y="1095" type="line"/>
      <point x="657" y="0" type="line"/>
    </contour>
  </outline>
</glyph>
<glyph name="w" format="1">
  <advance width="1686"/>
  <unicode hex="0077"/>
  <outline>
    <contour>
      <point x="1130" y="0" type="line"/>
      <point x="1034" y="306"/>
      <point x="937" y="608"/>
      <point x="844" y="917" type="curve"/>
      <point x="755" y="603"/>
      <point x="651" y="305"/>
      <point x="552" y="0" type="curve"/>
      <point x="372" y="0" type="line"/>
      <point x="59" y="1095" type="line"/>
      <point x="232" y="1095" type="line"/>
      <point x="467" y="199" type="line"/>
      <point x="559" y="502"/>
      <point x="658" y="796"/>
      <point x="755" y="1095" type="curve"/>
      <point x="944" y="1095" type="line"/>
      <point x="1038" y="797"/>
      <point x="1134" y="503"/>
      <point x="1224" y="202" type="curve"/>
      <point x="1456" y="1095" type="line"/>
      <point x="1627" y="1095" type="line"/>
      <point x="1311" y="0" type="line"/>
    </contour>
  </outline>
</glyph>
<glyph name="x" format="1">
  <advance width="1090"/>
  <unicode hex="0078"/>
  <outline>
    <contour>
      <point x="450" y="558" type="line"/>
      <point x="63" y="1095" type="line"/>
      <point x="254" y="1095" type="line"/>
      <point x="547" y="679" type="line"/>
      <point x="841" y="1095" type="line"/>
      <point x="1032" y="1095" type="line"/>
      <point x="644" y="556" type="line"/>
      <point x="1042" y="0" type="line"/>
      <point x="857" y="0" type="line"/>
      <point x="548" y="441" type="line"/>
      <point x="239" y="0" type="line"/>
      <point x="48" y="0" type="line"/>
    </contour>
  </outline>
</glyph>
<glyph name="y" format="1">
  <advance width="1084"/>
  <unicode hex="0079"/>
  <outline>
    <contour>
      <point x="42" y="1095" type="line"/>
      <point x="219" y="1095" type="line"/>
      <point x="559" y="181" type="line"/>
      <point x="873" y="1095" type="line"/>
      <point x="1050" y="1095" type="line"/>
      <point x="1050" y="1095"/>
      <point x="592" y="-125"/>
      <point x="577" y="-163" type="curve" smooth="yes"/>
      <point x="488" y="-386"/>
      <point x="372" y="-502"/>
      <point x="152" y="-502" type="curve" smooth="yes"/>
      <point x="118" y="-502"/>
      <point x="79" y="-501"/>
      <point x="53" y="-498" type="curve"/>
      <point x="39" y="-356" type="line"/>
      <point x="51" y="-357"/>
      <point x="98" y="-358"/>
      <point x="125" y="-358" type="curve" smooth="yes"/>
      <point x="276" y="-358"/>
      <point x="348" y="-309"/>
      <point x="409" y="-157" type="curve" smooth="yes"/>
      <point x="428" y="-108"/>
      <point x="449" y="-54"/>
      <point x="470" y="5" type="curve"/>
    </contour>
  </outline>
</glyph>
<glyph name="bar" format="1">
  <advance width="799"/>
  <unicode hex="007c"/>
  <outline>
    <contour>
      <point x="327" y="1579" type="line" smooth="no"/>
      <point x="472" y="1579" type="line" smooth="no"/>
      <point x="472" y="-400" type="line" smooth="no"/>
      <point x="327" y="-400" type="line" smooth="no"/>
    </contour>
  </outline>
</glyph>
<glyph name="acute" format="1">
  <advance width="639"/>
  <unicode hex="00b4"/>
  <outline>
    <contour>
      <point x="567" y="1638" type="line" smooth="no"/>
      <point x="242" y="1250" type="line" smooth="no"/>
      <point x="128" y="1250" type="line" smooth="no"/>
      <point x="314" y="1638" type="line" smooth="no"/>
    </contour>
  </outline>
</glyph>
<glyph name="IJ" format="1">
  <advance width="1090"/>
  <unicode hex="0132"/>
  <outline>
    <contour>
      <point x="766" y="181" type="curve" smooth="yes"/>
      <point x="766" y="1496" type="line" smooth="no"/>
      <point x="943" y="1496" type="line" smooth="no"/>
      <point x="943" y="241" type="line" smooth="yes"/>
      <point x="943" y="-67"/>
      <point x="908" y="-214"/>
      <point x="556" y="-214" type="curve" smooth="yes"/>
      <point x="521" y="-214" type="line" smooth="no"/>
      <point x="500" y="-72" type="line" smooth="no"/>
      <point x="574" y="-72" type="line" smooth="yes"/>
      <point x="756" y="-72"/>
      <point x="766" y="33"/>
    </contour>
    <contour>
      <point x="355" y="0" type="line" smooth="no"/>
      <point x="182" y="0" type="line" smooth="no"/>
      <point x="182" y="1479" type="line" smooth="no"/>
      <point x="355" y="1479" type="line" smooth="no"/>
    </contour>
  </outline>
</glyph>
<glyph name="ij" format="1">
  <advance width="911"/>
  <unicode hex="0133"/>
  <outline>
    <contour>
      <point x="796" y="1097" type="line" smooth="no"/>
      <point x="796" y="-139" type="line" smooth="yes"/>
      <point x="796" y="-407"/>
      <point x="736" y="-502"/>
      <point x="463" y="-502" type="curve" smooth="yes"/>
      <point x="411" y="-502" type="line" smooth="no"/>
      <point x="389" y="-351" type="line" smooth="no"/>
      <point x="441" y="-351" type="line" smooth="yes"/>
      <point x="623" y="-351"/>
      <point x="628" y="-286"/>
      <point x="628" y="-121" type="curve" smooth="yes"/>
      <point x="628" y="1097" type="line" smooth="no"/>
    </contour>
    <contour>
      <point x="796" y="1496" type="line" smooth="no"/>
      <point x="796" y="1298" type="line" smooth="no"/>
      <point x="628" y="1298" type="line" smooth="no"/>
      <point x="628" y="1496" type="line" smooth="no"/>
    </contour>
    <contour>
      <point x="327" y="1097" type="line" smooth="no"/>
      <point x="327" y="0" type="line" smooth="no"/>
      <point x="159" y="0" type="line" smooth="no"/>
      <point x="159" y="1097" type="line" smooth="no"/>
    </contour>
    <contour>
      <point x="327" y="1496" type="line" smooth="no"/>
      <point x="327" y="1298" type="line" smooth="no"/>
      <point x="159" y="1298" type="line" smooth="no"/>
      <point x="159" y="1496" type="line" smooth="no"/>
    </contour>
  </outline>
</glyph>
<glyph name="uni01C4" format="1">
  <advance width="2686"/>
  <unicode hex="01C4"/>
  <outline>
    <contour>
      <point x="1588" y="0" type="line"/>
      <point x="1588" y="136" type="line"/>
      <point x="2392" y="1325" type="line"/>
      <point x="1617" y="1325" type="line"/>
      <point x="1617" y="1479" type="line"/>
      <point x="2613" y="1479" type="line"/>
      <point x="2613" y="1350" type="line"/>
      <point x="1804" y="154" type="line"/>
      <point x="2620" y="154" type="line"/>
      <point x="2614" y="0" type="line"/>
    </contour>
    <contour>
      <point x="1832" y="2035" type="line"/>
      <point x="1963" y="2035" type="line"/>
      <point x="2124" y="1723" type="line"/>
      <point x="2285" y="2035" type="line"/>
      <point x="2419" y="2035" type="line"/>
      <point x="2232" y="1647" type="line"/>
      <point x="2019" y="1647" type="line"/>
    </contour>
    <contour>
      <point x="1205" y="736" type="curve" smooth="yes"/>
      <point x="1205" y="1162"/>
      <point x="972" y="1328"/>
      <point x="579" y="1328" type="curve" smooth="yes"/>
      <point x="347" y="1328" type="line"/>
      <point x="347" y="151" type="line"/>
      <point x="608" y="151" type="line" smooth="yes"/>
      <point x="994" y="151"/>
      <point x="1205" y="347"/>
    </contour>
    <contour>
      <point x="1390" y="741" type="curve" smooth="yes"/>
      <point x="1390" y="252"/>
      <point x="1095" y="0"/>
      <point x="613" y="0" type="curve" smooth="yes"/>
      <point x="174" y="0" type="line"/>
      <point x="174" y="1479" type="line"/>
      <point x="584" y="1479" type="line" smooth="yes"/>
      <point x="1069" y="1479"/>
      <point x="1390" y="1255"/>
    </contour>
  </outline>
</glyph>
<glyph name="uni01C5" format="1">
  <advance width="2414"/>
  <unicode hex="01c5"/>
  <outline>
    <contour>
      <point x="2351" y="0" type="line" smooth="no"/>
      <point x="1585" y="0" type="line" smooth="no"/>
      <point x="1585" y="126" type="line" smooth="no"/>
      <point x="2146" y="965" type="line" smooth="no"/>
      <point x="1600" y="965" type="line" smooth="no"/>
      <point x="1600" y="1097" type="line" smooth="no"/>
      <point x="2333" y="1097" type="line" smooth="no"/>
      <point x="2333" y="965" type="line" smooth="no"/>
      <point x="1773" y="132" type="line" smooth="no"/>
      <point x="2351" y="132" type="line" smooth="no"/>
    </contour>
    <contour>
      <point x="1658" y="1634" type="line" smooth="no"/>
      <point x="1789" y="1634" type="line" smooth="no"/>
      <point x="1950" y="1322" type="line" smooth="no"/>
      <point x="2111" y="1634" type="line" smooth="no"/>
      <point x="2245" y="1634" type="line" smooth="no"/>
      <point x="2058" y="1246" type="line" smooth="no"/>
      <point x="1845" y="1246" type="line" smooth="no"/>
    </contour>
    <contour>
      <point x="1205" y="736" type="curve" smooth="yes"/>
      <point x="1205" y="1162"/>
      <point x="972" y="1328"/>
      <point x="579" y="1328" type="curve" smooth="yes"/>
      <point x="347" y="1328" type="line" smooth="no"/>
      <point x="347" y="151" type="line" smooth="no"/>
      <point x="608" y="151" type="line" smooth="yes"/>
      <point x="994" y="151"/>
      <point x="1205" y="347"/>
    </contour>
    <contour>
      <point x="1390" y="741" type="curve" smooth="yes"/>
      <point x="1390" y="252"/>
      <point x="1095" y="0"/>
      <point x="613" y="0" type="curve" smooth="yes"/>
      <point x="174" y="0" type="line" smooth="no"/>
      <point x="174" y="1479" type="line" smooth="no"/>
      <point x="584" y="1479" type="line" smooth="yes"/>
      <point x="1069" y="1479"/>
      <point x="1390" y="1255"/>
    </contour>
  </outline>
</glyph>
<glyph name="uni01C6" format="1">
  <advance width="2123"/>
  <unicode hex="01c6"/>
  <outline>
    <contour>
      <point x="2060" y="0" type="line" smooth="no"/>
      <point x="1294" y="0" type="line" smooth="no"/>
      <point x="1294" y="126" type="line" smooth="no"/>
      <point x="1855" y="965" type="line" smooth="no"/>
      <point x="1309" y="965" type="line" smooth="no"/>
      <point x="1309" y="1097" type="line" smooth="no"/>
      <point x="2042" y="1097" type="line" smooth="no"/>
      <point x="2042" y="965" type="line" smooth="no"/>
      <point x="1482" y="132" type="line" smooth="no"/>
      <point x="2060" y="132" type="line" smooth="no"/>
    </contour>
    <contour>
      <point x="1367" y="1634" type="line" smooth="no"/>
      <point x="1498" y="1634" type="line" smooth="no"/>
      <point x="1659" y="1322" type="line" smooth="no"/>
      <point x="1820" y="1634" type="line" smooth="no"/>
      <point x="1954" y="1634" type="line" smooth="no"/>
      <point x="1767" y="1246" type="line" smooth="no"/>
      <point x="1554" y="1246" type="line" smooth="no"/>
    </contour>
    <contour>
      <point x="571" y="121" type="curve" smooth="yes"/>
      <point x="797" y="121"/>
      <point x="897" y="275"/>
      <point x="897" y="530" type="curve" smooth="yes"/>
      <point x="897" y="817"/>
      <point x="806" y="977"/>
      <point x="569" y="977" type="curve" smooth="yes"/>
      <point x="359" y="977"/>
      <point x="265" y="787"/>
      <point x="265" y="549" type="curve" smooth="yes"/>
      <point x="265" y="300"/>
      <point x="358" y="121"/>
    </contour>
    <contour>
      <point x="900" y="159" type="line" smooth="no"/>
      <point x="830" y="51"/>
      <point x="706" y="-22"/>
      <point x="555" y="-22" type="curve" smooth="yes"/>
      <point x="264" y="-22"/>
      <point x="92" y="200"/>
      <point x="92" y="553" type="curve" smooth="yes"/>
      <point x="92" y="888"/>
      <point x="270" y="1120"/>
      <point x="552" y="1120" type="curve" smooth="yes"/>
      <point x="695" y="1120"/>
      <point x="837" y="1053"/>
      <point x="902" y="945" type="curve" smooth="no"/>
      <point x="899" y="1040" type="line" smooth="no"/>
      <point x="899" y="1523" type="line" smooth="no"/>
      <point x="1064" y="1533" type="line" smooth="no"/>
      <point x="1064" y="0" type="line" smooth="no"/>
      <point x="922" y="0" type="line" smooth="no"/>
    </contour>
  </outline>
</glyph>
<glyph name="uni01C7" format="1">
  <advance width="1571"/>
  <unicode hex="01c7"/>
  <outline>
    <contour>
      <point x="1247" y="181" type="curve" smooth="yes"/>
      <point x="1247" y="1496" type="line" smooth="no"/>
      <point x="1424" y="1496" type="line" smooth="no"/>
      <point x="1424" y="241" type="line" smooth="yes"/>
      <point x="1424" y="-67"/>
      <point x="1389" y="-214"/>
      <point x="1037" y="-214" type="curve" smooth="yes"/>
      <point x="1002" y="-214" type="line" smooth="no"/>
      <point x="981" y="-72" type="line" smooth="no"/>
      <point x="1055" y="-72" type="line" smooth="yes"/>
      <point x="1237" y="-72"/>
      <point x="1247" y="33"/>
    </contour>
    <contour>
      <point x="174" y="0" type="line" smooth="no"/>
      <point x="174" y="1479" type="line" smooth="no"/>
      <point x="348" y="1479" type="line" smooth="no"/>
      <point x="348" y="154" type="line" smooth="no"/>
      <point x="999" y="154" type="line" smooth="no"/>
      <point x="993" y="0" type="line" smooth="no"/>
    </contour>
  </outline>
</glyph>
<glyph name="uni01C8" format="1">
  <advance width="1466"/>
  <unicode hex="01c8"/>
  <outline>
    <contour>
      <point x="1351" y="1097" type="line" smooth="no"/>
      <point x="1351" y="-139" type="line" smooth="yes"/>
      <point x="1351" y="-407"/>
      <point x="1291" y="-502"/>
      <point x="1018" y="-502" type="curve" smooth="yes"/>
      <point x="966" y="-502" type="line" smooth="no"/>
      <point x="944" y="-351" type="line" smooth="no"/>
      <point x="996" y="-351" type="line" smooth="yes"/>
      <point x="1178" y="-351"/>
      <point x="1183" y="-286"/>
      <point x="1183" y="-121" type="curve" smooth="yes"/>
      <point x="1183" y="1097" type="line" smooth="no"/>
    </contour>
    <contour>
      <point x="1351" y="1496" type="line" smooth="no"/>
      <point x="1351" y="1298" type="line" smooth="no"/>
      <point x="1183" y="1298" type="line" smooth="no"/>
      <point x="1183" y="1496" type="line" smooth="no"/>
    </contour>
    <contour>
      <point x="174" y="0" type="line" smooth="no"/>
      <point x="174" y="1479" type="line" smooth="no"/>
      <point x="348" y="1479" type="line" smooth="no"/>
      <point x="348" y="154" type="line" smooth="no"/>
      <point x="999" y="154" type="line" smooth="no"/>
      <point x="993" y="0" type="line" smooth="no"/>
    </contour>
  </outline>
</glyph>
<glyph name="uni01C9" format="1">
  <advance width="1014"/>
  <unicode hex="01C9"/>
  <outline>
    <contour>
      <point x="899" y="1097" type="line"/>
      <point x="899" y="-139" type="line" smooth="yes"/>
      <point x="899" y="-407"/>
      <point x="839" y="-502"/>
      <point x="566" y="-502" type="curve" smooth="yes"/>
      <point x="514" y="-502" type="line"/>
      <point x="492" y="-351" type="line"/>
      <point x="544" y="-351" type="line" smooth="yes"/>
      <point x="726" y="-351"/>
      <point x="731" y="-286"/>
      <point x="731" y="-121" type="curve" smooth="yes"/>
      <point x="731" y="1097" type="line"/>
    </contour>
    <contour>
      <point x="899" y="1496" type="line"/>
      <point x="899" y="1298" type="line"/>
      <point x="731" y="1298" type="line"/>
      <point x="731" y="1496" type="line"/>
    </contour>
    <contour>
      <point x="438" y="-20" type="curve" smooth="yes"/>
      <point x="226" y="-20"/>
      <point x="145" y="79"/>
      <point x="145" y="365" type="curve" smooth="yes"/>
      <point x="145" y="1523" type="line"/>
      <point x="311" y="1533" type="line"/>
      <point x="311" y="431" type="line" smooth="yes"/>
      <point x="311" y="186"/>
      <point x="323" y="118"/>
      <point x="476" y="118" type="curve" smooth="yes"/>
      <point x="525" y="118"/>
      <point x="555" y="124"/>
      <point x="602" y="130" type="curve"/>
      <point x="611" y="-3" type="line"/>
      <point x="538" y="-15"/>
      <point x="466" y="-20"/>
    </contour>
  </outline>
</glyph>
<glyph name="uni01CA" format="1">
  <advance width="2066"/>
  <unicode hex="01ca"/>
  <outline>
    <contour>
      <point x="1742" y="181" type="curve" smooth="yes"/>
      <point x="1742" y="1496" type="line" smooth="no"/>
      <point x="1919" y="1496" type="line" smooth="no"/>
      <point x="1919" y="241" type="line" smooth="yes"/>
      <point x="1919" y="-67"/>
      <point x="1884" y="-214"/>
      <point x="1532" y="-214" type="curve" smooth="yes"/>
      <point x="1497" y="-214" type="line" smooth="no"/>
      <point x="1476" y="-72" type="line" smooth="no"/>
      <point x="1550" y="-72" type="line" smooth="yes"/>
      <point x="1732" y="-72"/>
      <point x="1742" y="33"/>
    </contour>
    <contour>
      <point x="1342" y="0" type="line" smooth="no"/>
      <point x="1146" y="0" type="line" smooth="no"/>
      <point x="378" y="1164" type="line" smooth="no"/>
      <point x="328" y="1233" type="line" smooth="no"/>
      <point x="333" y="1102"/>
      <point x="336" y="977"/>
      <point x="336" y="858" type="curve" smooth="yes"/>
      <point x="336" y="0" type="line" smooth="no"/>
      <point x="174" y="0" type="line" smooth="no"/>
      <point x="174" y="1479" type="line" smooth="no"/>
      <point x="367" y="1479" type="line" smooth="no"/>
      <point x="1137" y="315" type="line" smooth="no"/>
      <point x="1188" y="246" type="line" smooth="no"/>
      <point x="1188" y="246"/>
      <point x="1181" y="565"/>
      <point x="1181" y="615" type="curve" smooth="yes"/>
      <point x="1181" y="1479" type="line" smooth="no"/>
      <point x="1342" y="1479" type="line" smooth="no"/>
    </contour>
  </outline>
</glyph>
<glyph name="uni01CB" format="1">
  <advance width="1961"/>
  <unicode hex="01CB"/>
  <outline>
    <contour>
      <point x="1846" y="1097" type="line"/>
      <point x="1846" y="-139" type="line" smooth="yes"/>
      <point x="1846" y="-407"/>
      <point x="1786" y="-502"/>
      <point x="1513" y="-502" type="curve" smooth="yes"/>
      <point x="1461" y="-502" type="line"/>
      <point x="1439" y="-351" type="line"/>
      <point x="1491" y="-351" type="line" smooth="yes"/>
      <point x="1673" y="-351"/>
      <point x="1678" y="-286"/>
      <point x="1678" y="-121" type="curve" smooth="yes"/>
      <point x="1678" y="1097" type="line"/>
    </contour>
    <contour>
      <point x="1846" y="1496" type="line"/>
      <point x="1846" y="1298" type="line"/>
      <point x="1678" y="1298" type="line"/>
      <point x="1678" y="1496" type="line"/>
    </contour>
    <contour>
      <point x="1342" y="0" type="line"/>
      <point x="1146" y="0" type="line"/>
      <point x="378" y="1164" type="line"/>
      <point x="328" y="1233" type="line"/>
      <point x="333" y="1102"/>
      <point x="336" y="977"/>
      <point x="336" y="858" type="curve" smooth="yes"/>
      <point x="336" y="0" type="line"/>
      <point x="174" y="0" type="line"/>
      <point x="174" y="1479" type="line"/>
      <point x="367" y="1479" type="line"/>
      <point x="1137" y="315" type="line"/>
      <point x="1188" y="246" type="line"/>
      <point x="1188" y="246"/>
      <point x="1181" y="565"/>
      <point x="1181" y="615" type="curve" smooth="yes"/>
      <point x="1181" y="1479" type="line"/>
      <point x="1342" y="1479" type="line"/>
    </contour>
  </outline>
</glyph>
<glyph name="uni01CC" format="1">
  <advance width="1629"/>
  <unicode hex="01cc"/>
  <outline>
    <contour>
      <point x="1514" y="1097" type="line" smooth="no"/>
      <point x="1514" y="-139" type="line" smooth="yes"/>
      <point x="1514" y="-407"/>
      <point x="1454" y="-502"/>
      <point x="1181" y="-502" type="curve" smooth="yes"/>
      <point x="1129" y="-502" type="line" smooth="no"/>
      <point x="1107" y="-351" type="line" smooth="no"/>
      <point x="1159" y="-351" type="line" smooth="yes"/>
      <point x="1341" y="-351"/>
      <point x="1346" y="-286"/>
      <point x="1346" y="-121" type="curve" smooth="yes"/>
      <point x="1346" y="1097" type="line" smooth="no"/>
    </contour>
    <contour>
      <point x="1514" y="1496" type="line" smooth="no"/>
      <point x="1514" y="1298" type="line" smooth="no"/>
      <point x="1346" y="1298" type="line" smooth="no"/>
      <point x="1346" y="1496" type="line" smooth="no"/>
    </contour>
    <contour>
      <point x="143" y="0" type="line" smooth="no"/>
      <point x="143" y="1097" type="line" smooth="no"/>
      <point x="283" y="1097" type="line" smooth="no"/>
      <point x="304" y="940" type="line" smooth="no"/>
      <point x="386" y="1043"/>
      <point x="520" y="1120"/>
      <point x="677" y="1120" type="curve" smooth="yes"/>
      <point x="930" y="1120"/>
      <point x="1049" y="980"/>
      <point x="1049" y="686" type="curve" smooth="yes"/>
      <point x="1049" y="0" type="line" smooth="no"/>
      <point x="882" y="0" type="line" smooth="no"/>
      <point x="882" y="0"/>
      <point x="882" y="660"/>
      <point x="881" y="707" type="curve" smooth="yes"/>
      <point x="876" y="888"/>
      <point x="817" y="977"/>
      <point x="649" y="977" type="curve" smooth="yes"/>
      <point x="471" y="977"/>
      <point x="355" y="880"/>
      <point x="322" y="754" type="curve" smooth="no"/>
      <point x="315" y="707"/>
      <point x="312" y="656"/>
      <point x="312" y="600" type="curve" smooth="yes"/>
      <point x="312" y="0" type="line" smooth="no"/>
    </contour>
  </outline>
</glyph>
<glyph name="uni01F3" format="1">
  <advance width="2123"/>
  <unicode hex="01F3"/>
  <outline>
    <contour>
      <point x="2060" y="0" type="line"/>
      <point x="1294" y="0" type="line"/>
      <point x="1294" y="126" type="line"/>
      <point x="1855" y="965" type="line"/>
      <point x="1309" y="965" type="line"/>
      <point x="1309" y="1097" type="line"/>
      <point x="2042" y="1097" type="line"/>
      <point x="2042" y="965" type="line"/>
      <point x="1482" y="132" type="line"/>
      <point x="2060" y="132" type="line"/>
    </contour>
    <contour>
      <point x="571" y="121" type="curve" smooth="yes"/>
      <point x="797" y="121"/>
      <point x="897" y="275"/>
      <point x="897" y="530" type="curve" smooth="yes"/>
      <point x="897" y="817"/>
      <point x="806" y="977"/>
      <point x="569" y="977" type="curve" smooth="yes"/>
      <point x="359" y="977"/>
      <point x="265" y="787"/>
      <point x="265" y="549" type="curve" smooth="yes"/>
      <point x="265" y="300"/>
      <point x="358" y="121"/>
    </contour>
    <contour>
      <point x="900" y="159" type="line"/>
      <point x="830" y="51"/>
      <point x="706" y="-22"/>
      <point x="555" y="-22" type="curve" smooth="yes"/>
      <point x="264" y="-22"/>
      <point x="92" y="200"/>
      <point x="92" y="553" type="curve" smooth="yes"/>
      <point x="92" y="888"/>
      <point x="270" y="1120"/>
      <point x="552" y="1120" type="curve" smooth="yes"/>
      <point x="695" y="1120"/>
      <point x="837" y="1053"/>
      <point x="902" y="945" type="curve"/>
      <point x="899" y="1040" type="line"/>
      <point x="899" y="1523" type="line"/>
      <point x="1064" y="1533" type="line"/>
      <point x="1064" y="0" type="line"/>
      <point x="922" y="0" type="line"/>
    </contour>
  </outline>
</glyph>
<glyph name="caron" format="1">
  <advance width="800"/>
  <unicode hex="02c7"/>
  <outline>
    <contour>
      <point x="108" y="1639" type="line" smooth="no"/>
      <point x="239" y="1639" type="line" smooth="no"/>
      <point x="400" y="1327" type="line" smooth="no"/>
      <point x="561" y="1639" type="line" smooth="no"/>
      <point x="695" y="1639" type="line" smooth="no"/>
      <point x="508" y="1251" type="line" smooth="no"/>
      <point x="295" y="1251" type="line" smooth="no"/>
    </contour>
  </outline>
</glyph>
<glyph name="ring" format="1">
  <advance width="433"/>
  <unicode hex="02DA"/>
  <outline>
    <contour>
      <point x="217" y="197" type="curve" smooth="yes"/>
      <point x="308" y="197"/>
      <point x="354" y="268"/>
      <point x="354" y="339" type="curve" smooth="yes"/>
      <point x="354" y="410"/>
      <point x="309" y="481"/>
      <point x="217" y="481" type="curve" smooth="yes"/>
      <point x="126" y="481"/>
      <point x="80" y="409"/>
      <point x="80" y="338" type="curve" smooth="yes"/>
      <point x="80" y="267"/>
      <point x="126" y="197"/>
    </contour>
    <contour>
      <point x="-17" y="339" type="curve" smooth="yes"/>
      <point x="-17" y="490"/>
      <point x="100" y="566"/>
      <point x="217" y="566" type="curve" smooth="yes"/>
      <point x="334" y="566"/>
      <point x="450" y="490"/>
      <point x="450" y="339" type="curve" smooth="yes"/>
      <point x="450" y="189"/>
      <point x="332" y="112"/>
      <point x="214" y="112" type="curve" smooth="yes"/>
      <point x="98" y="112"/>
      <point x="-17" y="187"/>
    </contour>
  </outline>
</glyph>
<glyph name="tilde" format="1">
  <advance width="433"/>
  <unicode hex="02DC"/>
  <outline>
    <contour>
      <point x="368" y="125" type="curve" smooth="yes"/>
      <point x="236" y="125"/>
      <point x="135" y="242"/>
      <point x="55" y="242" type="curve" smooth="yes"/>
      <point x="2" y="242"/>
      <point x="-44" y="187"/>
      <point x="-71" y="122" type="curve"/>
      <point x="-123" y="227" type="line"/>
      <point x="-88" y="316"/>
      <point x="-22" y="385"/>
      <point x="78" y="385" type="curve" smooth="yes"/>
      <point x="158" y="385"/>
      <point x="292" y="258"/>
      <point x="359" y="258" type="curve" smooth="yes"/>
      <point x="410" y="258"/>
      <point x="459" y="314"/>
      <point x="488" y="384" type="curve"/>
      <point x="556" y="273" type="line"/>
      <point x="521" y="189"/>
      <point x="443" y="125"/>
    </contour>
  </outline>
</glyph>
<glyph name="ellipsis" format="1">
  <advance width="1482"/>
  <unicode hex="2026"/>
  <outline>
    <contour>
      <point x="261" y="-12" type="curve" smooth="yes"/>
      <point x="173" y="-12"/>
      <point x="128" y="54"/>
      <point x="128" y="120" type="curve" smooth="yes"/>
      <point x="128" y="186"/>
      <point x="172" y="252"/>
      <point x="261" y="252" type="curve" smooth="yes"/>
      <point x="350" y="252"/>
      <point x="394" y="186"/>
      <point x="394" y="120" type="curve" smooth="yes"/>
      <point x="394" y="54"/>
      <point x="350" y="-12"/>
    </contour>
    <contour>
      <point x="755" y="-12" type="curve" smooth="yes"/>
      <point x="667" y="-12"/>
      <point x="622" y="54"/>
      <point x="622" y="120" type="curve" smooth="yes"/>
      <point x="622" y="186"/>
      <point x="666" y="252"/>
      <point x="755" y="252" type="curve" smooth="yes"/>
      <point x="844" y="252"/>
      <point x="888" y="186"/>
      <point x="888" y="120" type="curve" smooth="yes"/>
      <point x="888" y="54"/>
      <point x="844" y="-12"/>
    </contour>
    <contour>
      <point x="1249" y="-12" type="curve" smooth="yes"/>
      <point x="1161" y="-12"/>
      <point x="1116" y="54"/>
      <point x="1116" y="120" type="curve" smooth="yes"/>
      <point x="1116" y="186"/>
      <point x="1160" y="252"/>
      <point x="1249" y="252" type="curve" smooth="yes"/>
      <point x="1338" y="252"/>
      <point x="1382" y="186"/>
      <point x="1382" y="120" type="curve" smooth="yes"/>
      <point x="1382" y="54"/>
      <point x="1338" y="-12"/>
    </contour>
  </outline>
</glyph>
<glyph name="notequal" format="1">
  <advance width="1191"/>
  <unicode hex="2260"/>
  <outline>
    <contour>
      <point x="798" y="1207" type="line" smooth="no"/>
      <point x="913" y="1191" type="line" smooth="no"/>
      <point x="796" y="915" type="line" smooth="no"/>
      <point x="1074" y="915" type="line" smooth="no"/>
      <point x="1083" y="783" type="line" smooth="no"/>
      <point x="737" y="783" type="line" smooth="no"/>
      <point x="581" y="479" type="line" smooth="no"/>
      <point x="1076" y="479" type="line" smooth="no"/>
      <point x="1083" y="352" type="line" smooth="no"/>
      <point x="521" y="352" type="line" smooth="no"/>
      <point x="376" y="48" type="line" smooth="no"/>
      <point x="263" y="68" type="line" smooth="no"/>
      <point x="382" y="352" type="line" smooth="no"/>
      <point x="121" y="352" type="line" smooth="no"/>
      <point x="114" y="479" type="line" smooth="no"/>
      <point x="446" y="479" type="line" smooth="no"/>
      <point x="598" y="783" type="line" smooth="no"/>
      <point x="121" y="783" type="line" smooth="no"/>
      <point x="112" y="915" type="line" smooth="no"/>
      <point x="657" y="915" type="line" smooth="no"/>
    </contour>
  </outline>
</glyph>
<glyph name="middot" format="1">
  <advance width="468"/>
  <outline>
    <contour>
      <point x="318" y="759" type="line" smooth="no"/>
      <point x="318" y="561" type="line" smooth="no"/>
      <point x="150" y="561" type="line" smooth="no"/>
      <point x="150" y="759" type="line" smooth="no"/>
    </contour>
  </outline>
</glyph>
<glyph name="tcommaaccent" format="1">
  <advance width="710"/>
  <outline>
    <contour>
      <point x="493" y="-20" type="curve" smooth="yes"/>
      <point x="273" y="-20"/>
      <point x="196" y="84"/>
      <point x="191" y="314" type="curve" smooth="yes"/>
      <point x="190" y="361"/>
      <point x="191" y="973"/>
      <point x="191" y="973" type="curve" smooth="no"/>
      <point x="28" y="973" type="line" smooth="no"/>
      <point x="35" y="1083" type="line" smooth="no"/>
      <point x="190" y="1097" type="line" smooth="no"/>
      <point x="247" y="1348" type="line" smooth="no"/>
      <point x="357" y="1352" type="line" smooth="no"/>
      <point x="357" y="1097" type="line" smooth="no"/>
      <point x="662" y="1097" type="line" smooth="no"/>
      <point x="662" y="973" type="line" smooth="no"/>
      <point x="357" y="973" type="line" smooth="no"/>
      <point x="357" y="344" type="line" smooth="yes"/>
      <point x="357" y="176"/>
      <point x="403" y="117"/>
      <point x="525" y="117" type="curve" smooth="yes"/>
      <point x="564" y="117"/>
      <point x="613" y="125"/>
      <point x="668" y="133" type="curve" smooth="no"/>
      <point x="675" y="1" type="line" smooth="no"/>
      <point x="596" y="-13"/>
      <point x="536" y="-20"/>
    </contour>
    <contour>
      <point x="347.5" y="-431.3" type="line" smooth="no"/>
      <point x="193.5" y="-431.3" type="line" smooth="no"/>
      <point x="305.5" y="-5.2998" type="line" smooth="no"/>
      <point x="391.5" y="-5.2998" type="line" smooth="no"/>
    </contour>
  </outline>
</glyph>
<glyph name="u.alt" format="1">
  <advance width="1183"/>
  <outline>
    <contour>
      <point x="146" y="385" type="curve" smooth="yes"/>
      <point x="146" y="1095" type="line"/>
      <point x="314" y="1095" type="line"/>
      <point x="314" y="383" type="line" smooth="yes"/>
      <point x="314" y="186"/>
      <point x="432" y="108"/>
      <point x="592" y="108" type="curve" smooth="yes"/>
      <point x="750" y="108"/>
      <point x="867" y="188"/>
      <point x="867" y="383" type="curve" smooth="yes"/>
      <point x="867" y="1095" type="line"/>
      <point x="1035" y="1095" type="line"/>
      <point x="1035" y="385" type="line" smooth="yes"/>
      <point x="1035" y="97"/>
      <point x="826" y="-25"/>
      <point x="592" y="-25" type="curve" smooth="yes"/>
      <point x="358" y="-25"/>
      <point x="146" y="99"/>
    </contour>
  </outline>
</glyph>
